PathFileType  4	(X/Y/Z) C:\Users\antoi\Documents\MyRepositories\mobilecap\ResultsAnalysis
DataRate	CameraRate	NumFrames	NumMarkers	Units	OrigDataRate	OrigDataStartFrame	OrigNumFrames
100.0	100.0	6	51	mm	100.0	34	269
Frame#	Time	r_knee			r_shank_antsup			r_ankle			r_calc			r_5meta			r_toe			L_knee			L_shank_antsup			L_ankle			L_calc			L_5meta			L_toe			r_sh2			r_sh3			r_sh4			L_sh2			L_sh3			r_thigh1			r_thigh2			r_thigh3			r_thigh4			r_thigh5			L_thigh1			L_thigh2			L_thigh3			L_thigh4			r.ASIS			r.PSIS			L.ASIS			L.PSIS			C7			R_Shoulder			L_Shoulder			R_Sternum			L_Sternum			R_humerus			R_elbow_med			R_elbow_lat			R_forearm			R_wrist_radius			R_wrist_ulna			L_humerus			L_elbow_med			L_elbow_lat			L_forearm			L_wrist_radius			L_wrist_ulna			R_HJC			L_HJC			R_HJC_reg			L_HJC_reg			
		X1	Y1	Z1	X2	Y2	Z2	X3	Y3	Z3	X4	Y4	Z4	X5	Y5	Z5	X6	Y6	Z6	X7	Y7	Z7	X8	Y8	Z8	X9	Y9	Z9	X10	Y10	Z10	X11	Y11	Z11	X12	Y12	Z12	X13	Y13	Z13	X14	Y14	Z14	X15	Y15	Z15	X16	Y16	Z16	X17	Y17	Z17	X18	Y18	Z18	X19	Y19	Z19	X20	Y20	Z20	X21	Y21	Z21	X22	Y22	Z22	X23	Y23	Z23	X24	Y24	Z24	X25	Y25	Z25	X26	Y26	Z26	X27	Y27	Z27	X28	Y28	Z28	X29	Y29	Z29	X30	Y30	Z30	X31	Y31	Z31	X32	Y32	Z32	X33	Y33	Z33	X34	Y34	Z34	X35	Y35	Z35	X36	Y36	Z36	X37	Y37	Z37	X38	Y38	Z38	X39	Y39	Z39	X40	Y40	Z40	X41	Y41	Z41	X42	Y42	Z42	X43	Y43	Z43	X44	Y44	Z44	X45	Y45	Z45	X46	Y46	Z46	X47	Y47	Z47	X48	Y48	Z48	X49	Y49	Z49	X50	Y50	Z50	X51	Y51	Z51	

34	0.33000000	-1184.46602	803.39036	-438.37409	-1160.61930	704.99790	-444.81260	-1281.94238	399.69170	-454.32661	-1342.60111	364.96306	-502.39199	-1161.96512	351.88237	-412.51807	-1129.24273	379.77064	-467.03041	-1186.47293	808.21151	-728.10669	-1156.75692	718.04744	-714.30234	-1272.93674	404.76153	-721.22272	-1345.72663	360.52554	-679.90227	-1165.72003	350.91020	-757.60630	-1121.87413	375.08154	-699.69965	-1185.67051	593.98404	-446.92430	-1223.75182	717.43411	-404.88966	-1255.43862	605.88918	-403.31635	-1231.10634	746.30057	-758.12492	-1258.54372	627.18361	-765.36762	-1133.87990	1082.64033	-411.07187	-1124.13315	972.82191	-427.23472	-1176.91705	940.30392	-397.24931	-1246.12309	1068.78184	-398.54215	-1229.49171	955.17326	-413.68073	-1112.84464	1053.72900	-743.56472	-1104.49543	916.01944	-718.33125	-1216.31488	1043.02188	-781.72354	-1208.39933	912.23677	-749.92534	-1099.55284	1270.18291	-456.64878	-1302.53391	1320.75871	-540.11450	-1100.36009	1272.00517	-713.56503	-1300.42263	1319.96090	-633.61990	-1234.21231	1776.02939	-585.33005	-1171.54655	1741.77644	-416.99232	-1154.05136	1736.85289	-736.36810	-1115.23026	1693.78000	-555.05611	-1117.30760	1695.24433	-601.79413	-1138.42250	1607.47475	-367.72185	-1233.43841	1413.85533	-406.22459	-1209.39654	1420.70064	-347.16974	-1155.43438	1352.32039	-332.34514	-1108.80810	1189.45996	-369.01492	-1140.12385	1189.26128	-329.64222	-1126.47745	1594.88401	-789.49736	-1214.52541	1402.64467	-748.30280	-1183.73515	1411.48672	-817.98992	-1137.15863	1350.66739	-827.41222	-1107.44636	1173.06445	-805.81052	-1138.80013	1180.39676	-847.12341	-1190.03964	1190.48593	-484.58193	-1188.22732	1192.17077	-674.12831	-1181.28940	1201.02507	-494.23391	-1177.46157	1199.57838	-663.75424	
35	0.34000000	-1182.97079	803.17882	-438.37280	-1159.32903	704.53723	-444.87213	-1281.89541	399.61803	-454.34137	-1342.64338	364.95820	-502.40550	-1161.96619	351.89540	-412.51927	-1129.24002	379.80525	-467.03352	-1184.32808	807.54331	-727.65273	-1154.76083	717.27025	-713.99178	-1272.89429	404.74398	-721.24208	-1345.72909	360.52654	-679.90454	-1165.71262	350.92382	-757.56161	-1121.90473	375.10300	-699.71189	-1184.83083	593.64005	-446.96869	-1222.35131	717.22723	-404.93638	-1254.70101	605.75111	-403.18010	-1229.13438	745.83252	-757.40395	-1256.95122	626.99505	-765.24206	-1132.58261	1082.33657	-411.47316	-1122.91139	972.69181	-427.44351	-1175.59642	939.96492	-397.19180	-1245.00093	1068.44150	-398.27550	-1228.27702	954.67191	-413.66398	-1111.36403	1053.56942	-743.56265	-1102.77187	915.91072	-717.90956	-1215.03642	1042.70777	-782.13929	-1206.48370	911.64524	-749.80641	-1098.80150	1269.76020	-456.48404	-1301.69950	1320.47198	-540.03077	-1099.46150	1271.56084	-713.36510	-1299.59561	1319.59416	-633.56240	-1232.20494	1775.86033	-585.11238	-1169.66028	1741.32080	-416.60944	-1152.26954	1736.09321	-735.47386	-1113.46838	1693.18188	-554.65579	-1115.45053	1694.72972	-601.51590	-1137.01324	1606.85575	-367.50520	-1232.63699	1413.60172	-405.94956	-1208.78629	1420.40814	-346.81213	-1155.22467	1351.88548	-331.62513	-1109.09607	1188.74815	-368.02530	-1140.54749	1188.74149	-328.79424	-1125.06297	1594.40208	-789.39500	-1213.52150	1402.57828	-747.75506	-1183.18779	1411.21690	-817.68885	-1137.23401	1350.21511	-827.12122	-1108.57519	1172.24587	-806.15719	-1140.08632	1179.81611	-847.13590	-1189.31619	1190.11827	-484.43162	-1187.40795	1191.76875	-673.97731	-1180.53329	1200.76374	-493.99921	-1176.72064	1199.17324	-663.49519	
36	0.35000000	-1181.40611	802.88885	-438.10993	-1158.03539	704.01491	-444.88328	-1281.85348	399.56728	-454.34373	-1342.65263	364.93164	-502.38902	-1161.96380	351.89942	-412.51499	-1129.24839	379.82005	-467.02469	-1182.21116	806.87288	-727.21812	-1152.76435	716.54155	-713.63845	-1272.86468	404.71620	-721.22557	-1345.72432	360.54186	-679.92364	-1165.70547	350.93519	-757.51489	-1121.90515	375.11440	-699.68237	-1184.03808	593.37508	-446.87157	-1220.86244	716.88258	-404.96074	-1253.59295	606.01089	-402.95041	-1226.97562	745.40613	-756.90349	-1255.28187	626.99732	-765.35339	-1131.22544	1082.23297	-411.90851	-1121.69764	972.37689	-427.46904	-1174.37864	939.61895	-397.09589	-1243.91366	1067.83977	-398.24661	-1227.06558	954.13940	-413.63690	-1109.92566	1053.32413	-743.41889	-1100.93407	915.66232	-717.62459	-1213.39528	1041.99576	-781.45548	-1204.56705	911.03597	-749.76203	-1098.04221	1269.38226	-456.28558	-1300.87165	1320.08368	-539.73889	-1098.52489	1271.18971	-713.25006	-1298.68154	1319.28757	-633.64327	-1229.99392	1775.63467	-584.88188	-1167.68729	1740.91624	-416.21131	-1150.26759	1735.49336	-734.83539	-1111.58557	1692.55113	-554.33855	-1113.55992	1694.09518	-601.33923	-1135.54951	1606.21475	-367.28341	-1231.89487	1413.29318	-405.64594	-1208.18045	1420.09506	-346.45331	-1154.95039	1351.51298	-330.85783	-1109.30523	1188.03922	-367.11032	-1140.91245	1188.20075	-327.89966	-1123.61246	1593.78746	-789.26838	-1212.50005	1402.42343	-747.19001	-1182.55877	1410.91973	-817.40911	-1137.15211	1349.57622	-826.98981	-1109.63298	1171.42969	-806.67867	-1141.18609	1179.30510	-847.31734	-1188.52253	1189.73823	-484.31340	-1186.52049	1191.42106	-673.85784	-1179.73517	1200.25071	-493.94442	-1175.78150	1198.81310	-663.49319	
37	0.36000000	-1179.89390	802.40581	-437.79620	-1156.69700	703.45718	-444.85899	-1281.78595	399.54011	-454.29778	-1342.59797	364.90789	-502.37318	-1161.97135	351.88346	-412.53386	-1129.27099	379.81653	-467.01698	-1180.08077	806.25376	-726.69145	-1150.72373	715.81700	-713.18011	-1272.85913	404.65931	-721.11175	-1345.71670	360.55578	-679.93845	-1165.70545	350.94899	-757.50022	-1121.88455	375.10870	-699.62637	-1183.22399	592.97861	-446.83523	-1219.37034	716.57151	-404.98583	-1252.51936	606.14528	-402.76289	-1224.65128	745.11913	-756.71217	-1253.55341	627.00397	-765.48538	-1130.34844	1082.10856	-411.95577	-1120.48943	971.89923	-427.35746	-1173.11445	939.12763	-397.08901	-1242.81928	1067.11898	-398.22666	-1225.74954	953.60431	-413.52596	-1108.39549	1052.91485	-743.10238	-1099.02345	915.32758	-717.39859	-1211.36540	1040.90903	-779.93602	-1202.66746	910.44723	-749.65833	-1097.26766	1269.01147	-456.10501	-1299.98792	1319.74366	-539.54525	-1097.54316	1270.83873	-713.21811	-1297.67653	1318.94474	-633.56785	-1227.68552	1775.34128	-584.62777	-1165.64977	1740.52416	-415.73552	-1147.98918	1735.12897	-734.76531	-1109.65348	1691.89009	-554.16961	-1111.66675	1693.38518	-601.06266	-1134.01477	1605.55691	-366.92559	-1231.06278	1412.94875	-405.44843	-1207.51112	1419.75282	-346.19148	-1154.54183	1351.00745	-330.18595	-1109.43220	1187.31302	-366.21958	-1141.19051	1187.63051	-327.06425	-1122.06449	1593.12114	-788.98777	-1211.99828	1402.15514	-747.18278	-1181.81435	1410.62687	-817.23171	-1136.61925	1348.91290	-827.29247	-1110.62358	1170.61803	-807.14536	-1142.15911	1178.84950	-847.94321	-1187.66578	1189.36674	-484.20835	-1185.59451	1191.08393	-673.75183	-1178.98062	1199.85783	-493.89039	-1174.81047	1198.41539	-663.53193	
38	0.37000000	-1178.39415	801.82006	-437.72631	-1155.28163	702.90599	-444.82597	-1281.72073	399.53091	-454.21952	-1342.53277	364.91415	-502.37850	-1161.99131	351.85594	-412.58143	-1129.28387	379.80200	-467.02019	-1177.83407	805.70899	-726.36024	-1148.71985	715.00217	-712.75714	-1272.86225	404.59881	-721.01399	-1345.71895	360.54701	-679.92827	-1165.70767	350.97591	-757.48865	-1121.87792	375.10247	-699.59517	-1182.32051	592.40109	-446.90296	-1217.98627	716.38283	-404.97507	-1251.65862	605.82486	-402.81053	-1222.12485	745.04274	-757.13461	-1251.90199	626.83895	-765.41014	-1129.99163	1081.88007	-411.33376	-1119.22259	971.36724	-427.35197	-1171.63308	938.59949	-397.08496	-1241.65314	1066.57932	-397.94523	-1224.32038	953.06697	-413.34387	-1106.76444	1052.48790	-742.67897	-1097.14697	915.09651	-717.13913	-1209.34420	1039.87682	-778.97816	-1200.71584	909.87467	-749.43621	-1096.48135	1268.55031	-455.91704	-1299.03058	1319.52168	-539.67255	-1096.47421	1270.35036	-713.07710	-1296.62477	1318.51651	-633.36876	-1225.35206	1775.02649	-584.37139	-1163.52879	1739.95782	-415.41806	-1145.58015	1734.76015	-734.85190	-1107.69927	1691.20319	-553.91218	-1109.72051	1692.71366	-600.76287	-1132.40091	1604.86689	-366.48908	-1230.16375	1412.59722	-405.15200	-1206.71809	1419.39242	-345.85182	-1154.05346	1350.37627	-329.60689	-1109.54398	1186.56698	-365.31159	-1141.35904	1187.01223	-326.24135	-1120.40059	1592.48634	-788.64825	-1211.55329	1401.93892	-747.39445	-1180.99000	1410.34250	-817.12984	-1136.09799	1348.40134	-827.58003	-1111.57505	1169.81360	-807.41615	-1143.12435	1178.35271	-848.49698	-1186.86688	1188.98699	-484.07030	-1184.63852	1190.64941	-673.61243	-1178.29234	1199.73320	-493.64911	-1173.93579	1197.91153	-663.31303	
39	0.38000000	-1176.68577	801.33823	-437.88744	-1153.80648	702.35149	-444.82789	-1281.69387	399.53287	-454.17254	-1342.54280	364.91873	-502.37248	-1162.01041	351.83881	-412.61755	-1129.28620	379.79145	-467.02996	-1175.42303	805.24667	-726.48079	-1146.79771	714.15559	-712.45380	-1272.85262	404.52851	-720.96575	-1345.73000	360.52806	-679.91259	-1165.70807	351.00594	-757.45611	-1121.88504	375.10067	-699.57653	-1181.36959	591.84588	-446.93936	-1216.59645	716.16000	-404.88247	-1250.67402	605.21762	-403.12404	-1219.39393	745.09846	-758.07048	-1250.35880	626.60593	-765.19314	-1129.49535	1081.65946	-410.59648	-1117.94040	970.86587	-427.36611	-1170.06158	938.14716	-396.98207	-1240.40765	1066.08076	-397.50442	-1222.88164	952.46765	-413.10152	-1105.18435	1052.13147	-742.23348	-1095.22414	914.73168	-716.78104	-1207.44708	1038.81342	-778.61532	-1198.69286	909.24303	-749.11804	-1095.68633	1268.01804	-455.69670	-1298.07979	1319.32469	-539.98397	-1095.36249	1269.76032	-712.68551	-1295.52884	1318.11379	-633.39187	-1222.93863	1774.71624	-584.10768	-1161.34585	1739.25273	-415.28815	-1143.14501	1734.22484	-734.67086	-1105.69141	1690.47633	-553.49295	-1107.66131	1692.01252	-600.57933	-1130.74989	1604.16828	-366.05081	-1229.31056	1412.26713	-404.54633	-1205.82332	1419.03836	-345.25977	-1153.49896	1349.77274	-328.96810	-1109.66893	1185.79045	-364.42927	-1141.45491	1186.37852	-325.35704	-1118.62431	1591.85185	-788.47887	-1210.50073	1401.78411	-746.99286	-1180.11857	1409.99368	-816.90158	-1135.93798	1347.87469	-827.35025	-1112.48945	1168.98661	-807.62581	-1144.03891	1177.81958	-848.55622	-1186.19498	1188.60079	-483.92367	-1183.63063	1190.15262	-673.46230	-1177.64308	1199.61501	-493.38564	-1173.01332	1197.41770	-662.92470	
